<svg width="364" height="140" viewBox="0 0 364 140" fill="none" xmlns="http://www.w3.org/2000/svg">
<path d="M251.719 117.353V87.2193L308.823 5.7478H348.815V85.7313H363.138V117.353H348.815V139.674H311.986V117.353H251.719ZM314.776 46.8556L289.107 85.7313H314.776V46.8556Z" fill="#2B519B"/>
<path d="M127.237 69.7344C127.237 48.4054 131.577 31.6027 140.258 19.3262C148.938 7.04965 162.579 0.911377 181.179 0.911377C199.78 0.911377 213.421 7.04965 222.101 19.3262C230.906 31.6027 235.308 48.4054 235.308 69.7344C235.308 91.3113 230.968 108.238 222.287 120.515C213.607 132.791 199.904 138.929 181.179 138.929C162.455 138.929 148.752 132.791 140.072 120.515C131.515 108.238 127.237 91.3113 127.237 69.7344ZM199.222 69.7344C199.222 58.5739 198.044 50.0795 195.688 44.2513C193.332 38.299 188.496 35.3229 181.179 35.3229C173.863 35.3229 169.027 38.299 166.671 44.2513C164.315 50.0795 163.137 58.5739 163.137 69.7344C163.137 81.1429 164.253 89.8232 166.485 95.7755C168.841 101.604 173.739 104.518 181.179 104.518C188.62 104.518 193.456 101.604 195.688 95.7755C198.044 89.8232 199.222 81.1429 199.222 69.7344Z" fill="#2B519B"/>
<path d="M0.862305 117.353V87.2193L57.9668 5.7478H97.9585V85.7313H112.281V117.353H97.9585V139.674H61.1289V117.353H0.862305ZM63.919 46.8556L38.2499 85.7313H63.919V46.8556Z" fill="#2B519B"/>
</svg>
